#!OML:ASF F:\VICON\USERDATA\INSTALL\rory3\rory3.ASF
:FULLY-SPECIFIED
:DEGREES
198
root 0.908718 18.2997 1.82553 3.52151 -48.232 -0.360658
lowerback 10.3306 0.389131 -3.16634
upperback 0.792357 0.154625 0.381381
thorax -4.97958 0.141359 2.16142
lowerneck -15.1742 -9.14151 -13.8312
upperneck 31.0142 -14.1473 12.294
head 15.3884 -6.36049 4.82552
rclavicle -1.86361e-015 -7.15625e-015
rhumerus -32.1932 -9.58205 -83.0348
rradius 34.8417
rwrist 4.82974
rhand -15.2713 8.73501
rfingers 7.12502
rthumb 10.9031 -20.9619
lclavicle -1.86361e-015 -7.15625e-015
lhumerus -34.8662 3.8251 82.7551
lradius 33.953
lwrist -4.20923
lhand -16.1763 24.9788
lfingers 7.12502
lthumb 10.0301 54.7198
rfemur -16.8647 -19.5782 20.2321
rtibia 31.8142
rfoot -18.0984 -20.2862
rtoes 23.2574
lfemur 2.71264 9.26157 -24.2202
ltibia -1.51076e-014
lfoot 0.318807 17.26
ltoes 2.99934
199
root 0.921666 18.2988 1.82755 3.43689 -49.0541 -0.305853
lowerback 10.395 0.404801 -3.17693
upperback 0.719345 0.171466 0.385536
thorax -5.09329 0.152891 2.16941
lowerneck -15.0039 -9.06781 -13.9608
upperneck 30.9949 -14.0305 12.3084
head 15.3319 -6.33583 4.88332
rclavicle 8.29181e-014 -4.77083e-015
rhumerus -32.4637 -9.56454 -82.8742
rradius 34.8004
rwrist 4.75063
rhand -15.7041 7.88
rfingers 7.12502
rthumb 10.4856 -21.8385
lclavicle 8.29181e-014 -4.77083e-015
lhumerus -34.9951 3.69127 82.7506
lradius 33.9077
lwrist -3.7342
lhand -16.3737 25.0378
lfingers 7.12502
lthumb 9.83964 54.7879
rfemur -16.879 -20.1642 19.9912
rtibia 32.3002
rfoot -18.1729 -20.0842
rtoes 23.7835
lfemur 2.78908 9.5887 -24.3192
ltibia 3.18055e-015
lfoot 0.341185 17.6342
ltoes 3.03679
200
root 0.929232 18.2936 1.8271 3.32696 -49.918 -0.191498
lowerback 10.3492 0.455032 -3.27215
upperback 0.690515 0.226415 0.349723
thorax -5.10166 0.18225 2.17761
lowerneck -14.9901 -9.03479 -13.9346
upperneck 31.1214 -13.9893 12.2194
head 15.3683 -6.33002 4.85403
rclavicle -6.47541e-014 7.65321e-015
rhumerus -32.605 -9.87698 -82.7027
rradius 34.5559
rwrist 4.98444
rhand -15.8558 7.69909
rfingers 7.12502
rthumb 10.3393 -22.0267
lclavicle -6.47541e-014 7.65321e-015
lhumerus -35.1084 3.57223 82.6759
lradius 33.9245
lwrist -3.36531
lhand -16.5904 25.0723
lfingers 7.12502
lthumb 9.63058 54.8321
rfemur -16.8992 -20.8722 19.776
rtibia 32.6534
rfoot -17.5892 -20.0426
rtoes 22.1189
lfemur 2.84666 9.95377 -24.4485
ltibia 1.19271e-014
lfoot 0.334442 18.0289
ltoes 3.19549
201
root 0.93594 18.29 1.82469 3.27538 -50.7842 -0.137011
lowerback 10.2565 0.490058 -3.37889
upperback 0.673404 0.26351 0.344236
thorax -5.07057 0.202609 2.22671
lowerneck -14.9661 -8.97933 -13.8143
upperneck 31.2 -13.9031 12.0477
head 15.353 -6.30379 4.78043
rclavicle 1.44616e-014 1.6201e-014
rhumerus -32.6045 -10.4469 -82.4462
rradius 34.0692
rwrist 5.55178
rhand -15.5355 8.09165
rfingers 7.12502
rthumb 10.6482 -21.6185
lclavicle 1.44616e-014 1.6201e-014
lhumerus -35.1803 3.62591 82.5355
lradius 33.8999
lwrist -3.27631
lhand -16.5807 25.2505
lfingers 7.12502
lthumb 9.63994 55.0099
rfemur -16.846 -21.2379 19.5861
rtibia 32.885
rfoot -17.0816 -20.0478
rtoes 21.1125
lfemur 2.88885 10.3227 -24.4989
ltibia -3.97569e-015
lfoot 0.0624606 18.4023
ltoes 4.48858
202
root 0.944568 18.2941 1.81987 3.3601 -51.5468 -0.213701
lowerback 10.1752 0.481963 -3.35594
upperback 0.626671 0.25852 0.350911
thorax -5.0737 0.200593 2.22147
lowerneck -14.8762 -8.88875 -13.8692
upperneck 31.2344 -13.8114 12.135
head 15.3457 -6.26993 4.8515
rclavicle -2.79044e-014 1.65985e-014
rhumerus -32.7628 -10.7064 -82.2547
rradius 33.8427
rwrist 5.86296
rhand -15.2704 8.45923
rfingers 7.12502
rthumb 10.9039 -21.2377
lclavicle -2.79044e-014 1.65985e-014
lhumerus -35.2709 3.70902 82.3752
lradius 33.8556
lwrist -3.38724
lhand -16.4692 25.3615
lfingers 7.12502
lthumb 9.74752 55.1159
rfemur -16.7758 -21.3075 19.5159
rtibia 33.0154
rfoot -16.3745 -20.301
rtoes 19.8912
lfemur 2.8684 10.5902 -24.4624
ltibia -3.18055e-015
lfoot -0.140779 18.7444
ltoes 5.48137
203
root 0.951514 18.2959 1.81241 3.47398 -52.2815 -0.3015
lowerback 10.0966 0.498018 -3.27867
upperback 0.585071 0.29009 0.327595
thorax -5.07475 0.214873 2.14895
lowerneck -14.8073 -8.84575 -13.8937
upperneck 31.2117 -13.7871 12.2229
head 15.3259 -6.25887 4.90006
rclavicle 4.94974e-014 3.77691e-015
rhumerus -32.9515 -10.8153 -82.1425
rradius 33.7274
rwrist 5.88294
rhand -15.3547 8.64792
rfingers 7.12502
rthumb 10.8226 -21.0532
lclavicle 4.94974e-014 3.77691e-015
lhumerus -35.2632 3.76507 82.2352
lradius 33.6812
lwrist -3.50905
lhand -16.8064 25.3228
lfingers 7.12502
lthumb 9.42211 55.0922
rfemur -16.7144 -21.5215 19.5021
rtibia 33.0464
rfoot -15.4234 -20.651
rtoes 17.7286
lfemur 2.8315 10.8288 -24.4235
ltibia -7.95139e-015
lfoot -0.400877 19.1322
ltoes 6.43355
204
root 0.95512 18.2954 1.80829 3.46812 -52.9718 -0.318729
lowerback 10.0592 0.49752 -3.24957
upperback 0.572746 0.293366 0.317162
thorax -5.06665 0.215737 2.12117
lowerneck -14.8464 -8.82908 -13.8233
upperneck 31.2503 -13.7628 12.1434
head 15.3331 -6.25037 4.85824
rclavicle -3.57315e-014 9.74045e-015
rhumerus -33.0335 -11.0424 -82.0205
rradius 33.4539
rwrist 5.9444
rhand -15.6895 8.59958
rfingers 7.12502
rthumb 10.4997 -21.1182
lclavicle -3.57315e-014 9.74045e-015
lhumerus -35.2116 4.02716 82.0668
lradius 33.4388
lwrist -3.74164
lhand -17.2275 25.1444
lfingers 7.12502
lthumb 9.01579 54.9318
rfemur -16.4872 -21.5849 19.35
rtibia 33.0133
rfoot -14.9766 -20.8127
rtoes 17.137
lfemur 2.87469 11.0258 -24.4253
ltibia 2.38542e-015
lfoot -0.576985 19.4932
ltoes 6.79808
205
root 0.956648 18.2991 1.80334 3.53884 -53.6048 -0.448592
lowerback 10.0314 0.452676 -3.20779
upperback 0.56545 0.241565 0.357349
thorax -5.05554 0.189627 2.14707
lowerneck -14.9492 -8.77792 -13.7692
upperneck 31.3418 -13.6689 12.0325
head 15.3656 -6.21542 4.82052
rclavicle -1.08089e-013 1.13307e-014
rhumerus -33.0611 -11.4088 -81.8064
rradius 33.115
rwrist 6.13141
rhand -15.7285 8.6765
rfingers 7.12502
rthumb 10.4621 -21.0432
lclavicle -1.08089e-013 1.13307e-014
lhumerus -35.2471 4.44092 81.8713
lradius 33.3117
lwrist -3.98007
lhand -17.3231 24.9027
lfingers 7.12502
lthumb 8.92356 54.694
rfemur -16.1739 -21.353 19.2432
rtibia 32.9434
rfoot -14.5613 -20.8948
rtoes 17.3039
lfemur 2.93603 11.1708 -24.3463
ltibia -1.03368e-014
lfoot -0.728134 19.9076
ltoes 6.78512
206
root 0.957291 18.3045 1.79472 3.7273 -54.217 -0.662609
lowerback 9.96201 0.382604 -3.2071
upperback 0.551684 0.155284 0.438479
thorax -5.02601 0.147775 2.24379
lowerneck -15.0811 -8.71136 -13.6901
upperneck 31.5074 -13.5717 11.9245
head 15.4377 -6.17579 4.78268
rclavicle 6.21948e-014 -3.18055e-015
rhumerus -33.0856 -11.6417 -81.5902
rradius 32.8309
rwrist 6.34543
rhand -15.3781 9.15381
rfingers 7.12502
rthumb 10.8001 -20.5485
lclavicle 6.21948e-014 -3.18055e-015
lhumerus -35.2797 4.78693 81.6977
lradius 33.2131
lwrist -3.95875
lhand -16.9169 24.8995
lfingers 7.12502
lthumb 9.31551 54.6737
rfemur -15.9392 -21.2206 19.2506
rtibia 32.847
rfoot -13.8244 -20.9179
rtoes 17.1761
lfemur 2.94125 11.2947 -24.2201
ltibia 9.54166e-015
lfoot -0.863474 20.3404
ltoes 6.86366
207
root 0.956403 18.3031 1.78598 3.75767 -54.8625 -0.683117
lowerback 9.85 0.328755 -3.30419
upperback 0.568589 0.0792234 0.481578
thorax -4.94101 0.111202 2.35413
lowerneck -15.1849 -8.6889 -13.6405
upperneck 31.6008 -13.5232 11.8176
head 15.4813 -6.16042 4.73762
rclavicle -2.8948e-014 2.78299e-015
rhumerus -33.1009 -11.5585 -81.5268
rradius 32.6755
rwrist 6.2593
rhand -15.1291 9.38947
rfingers 7.12502
rthumb 11.0402 -20.3002
lclavicle -2.8948e-014 2.78299e-015
lhumerus -35.2871 5.0125 81.581
lradius 33.1291
lwrist -3.88301
lhand -16.5447 24.9979
lfingers 7.12502
lthumb 9.67463 54.7557
rfemur -15.709 -21.3006 19.1502
rtibia 32.6957
rfoot -13.1583 -20.8059
rtoes 16.6335
lfemur 2.96204 11.4448 -24.2287
ltibia -1.74931e-014
lfoot -0.909917 20.783
ltoes 6.99321
208
root 0.956876 18.3004 1.77405 3.78578 -55.4878 -0.655466
lowerback 9.74617 0.299927 -3.36781
upperback 0.558655 0.0365627 0.461014
thorax -4.89052 0.090639 2.37416
lowerneck -15.1339 -8.68466 -13.6219
upperneck 31.4622 -13.5155 11.8266
head 15.4008 -6.15748 4.7352
rclavicle 3.32716e-014 -1.82882e-014
rhumerus -33.1632 -11.731 -81.4929
rradius 32.5355
rwrist 6.27958
rhand -15.2337 9.02501
rfingers 7.12502
rthumb 10.9394 -20.67
lclavicle 3.32716e-014 -1.82882e-014
lhumerus -35.2937 5.13598 81.4219
lradius 33.0932
lwrist -4.0754
lhand -16.1248 25.4038
lfingers 7.12502
lthumb 10.0798 55.1424
rfemur -15.524 -21.3191 19.0499
rtibia 32.4923
rfoot -12.6866 -20.6145
rtoes 15.9107
lfemur 2.92169 11.5699 -24.2718
ltibia 1.59028e-015
lfoot -1.02228 21.2484
ltoes 7.3071
209
root 0.957213 18.3056 1.76072 3.93598 -56.0885 -0.754603
lowerback 9.67698 0.292555 -3.36576
upperback 0.521715 0.0290942 0.455837
thorax -4.88994 0.0875148 2.36846
lowerneck -15.1252 -8.68377 -13.5196
upperneck 31.3427 -13.5321 11.8246
head 15.3348 -6.15435 4.70813
rclavicle -6.1499e-014 7.7526e-015
rhumerus -33.3199 -12.0572 -81.3279
rradius 32.3863
rwrist 6.4028
rhand -15.3783 8.91214
rfingers 7.12502
rthumb 10.7998 -20.7902
lclavicle -6.1499e-014 7.7526e-015
lhumerus -35.309 5.2843 81.2647
lradius 33.0586
lwrist -4.48359
lhand -15.82 25.5686
lfingers 7.12502
lthumb 10.3738 55.2927
rfemur -15.3 -20.8144 19.0204
rtibia 32.2447
rfoot -12.6728 -20.6118
rtoes 15.6908
lfemur 2.83601 11.6738 -24.2465
ltibia 3.97569e-015
lfoot -0.925901 21.7371
ltoes 6.89953
